<?xml version="1.0" encoding="utf-8"?>
<!-- Generator: Adobe Illustrator 27.3.1, SVG Export Plug-In . SVG Version: 6.00 Build 0)  -->
<svg version="1.1" id="Calque_1" xmlns="http://www.w3.org/2000/svg" xmlns:xlink="http://www.w3.org/1999/xlink" x="0px" y="0px"
	 width="248.5px" height="50.1px" viewBox="0 0 248.5 50.1" style="enable-background:new 0 0 248.5 50.1;" xml:space="preserve">
<style type="text/css">
	.st0{fill:#FD2D01;}
	.st1{fill:#FFD7D7;}
</style>
<g id="b5a93e15-ef7c-9d7a-680b-cdb17474f15f" transform="matrix(2.2,0,0,2.2,90.86749374866484,130.23299922943116)">
	<path class="st0" d="M-10.7-44L-10.7-44c-1.5,0-2.7-0.5-3.6-1.5l0,0l0,0c-1-1-1.5-2.2-1.5-3.7l0,0l0,0c0-1.4,0.5-2.7,1.5-3.6l0,0
		l0,0c1-1,2.2-1.5,3.6-1.5l0,0l0,0c1.5,0,2.7,0.5,3.8,1.4l0,0l-1.4,1.5l0,0c-0.7-0.5-1.5-0.8-2.4-0.8l0,0l0,0
		c-0.9,0-1.7,0.3-2.2,0.9l0,0l0,0c-0.6,0.6-0.8,1.3-0.8,2.2l0,0l0,0c0,1,0.3,1.7,0.8,2.3l0,0l0,0c0.6,0.6,1.3,0.8,2.2,0.8l0,0l0,0
		c0.7,0,1.3-0.1,1.7-0.4l0,0v-1.8l-1.4,0v-1.9H-7v4.8l0,0C-8-44.4-9.3-44-10.7-44L-10.7-44z M-3.3-50.8v0.8l0,0
		c0.5-0.5,1.1-0.8,1.8-0.8l0,0l0,0c0.2,0,0.4,0,0.6,0l0,0l-0.3,1.9l0,0c-0.2-0.2-0.5-0.3-0.9-0.3l0,0l0,0c-0.5,0-0.9,0.4-1.2,1l0,0
		v4.2h-1.9v-6.6L-3.3-50.8z M3.5-43.9L3.5-43.9c-1,0-1.8-0.3-2.5-1l0,0l0,0c-0.7-0.7-1-1.5-1-2.5l0,0l0,0c0-1,0.3-1.8,1-2.5l0,0l0,0
		c0.7-0.7,1.5-1,2.5-1l0,0l0,0c1,0,1.8,0.3,2.5,1l0,0l0,0c0.7,0.7,1,1.5,1,2.5l0,0l0,0c0,1-0.3,1.8-1,2.5l0,0l0,0
		C5.3-44.2,4.5-43.9,3.5-43.9L3.5-43.9z M3.5-45.6L3.5-45.6L3.5-45.6c0.5,0,0.9-0.2,1.3-0.5l0,0l0,0c0.3-0.3,0.5-0.8,0.5-1.3l0,0
		l0,0c0-0.5-0.2-1-0.5-1.3l0,0l0,0C4.4-49,4-49.2,3.5-49.2l0,0l0,0c-0.5,0-0.9,0.2-1.3,0.5l0,0l0,0c-0.3,0.3-0.5,0.8-0.5,1.3l0,0
		l0,0c0,0.5,0.2,1,0.5,1.3l0,0l0,0C2.5-45.7,2.9-45.6,3.5-45.6z M12.4-46.4L12.4-46.4v-4.4h1.9v6.8h-1.9v-0.6l0,0
		c-0.5,0.4-1,0.6-1.6,0.6l0,0l0,0c-0.9,0-1.5-0.3-2-0.8l0,0l0,0c-0.5-0.5-0.7-1.1-0.7-1.8l0,0v-4.2H10v3.8l0,0
		c0,0.5,0.1,0.8,0.3,1.1l0,0l0,0c0.2,0.3,0.6,0.4,1,0.4l0,0l0,0C11.8-45.6,12.1-45.9,12.4-46.4z M17.8-41.1l-1.9,0v-9.5l1.9-0.2v0.5
		l0,0c0.5-0.4,1-0.5,1.5-0.5l0,0l0,0c1,0,1.9,0.3,2.5,1l0,0l0,0c0.6,0.7,0.9,1.5,0.9,2.4l0,0l0,0c0,0.9-0.3,1.7-0.9,2.4l0,0l0,0
		c-0.6,0.7-1.4,1-2.5,1l0,0l0,0c-0.7,0-1.2-0.2-1.5-0.6l0,0V-41.1z M17.8-48L17.8-48v1.1l0,0c0.1,0.8,0.6,1.2,1.4,1.4l0,0l0,0
		c1.1-0.1,1.7-0.7,1.8-1.7l0,0l0,0c0-1.3-0.7-1.9-1.8-2l0,0l0,0C18.4-49.1,17.9-48.7,17.8-48z M27.2-43.9L27.2-43.9
		c-1,0-1.8-0.3-2.5-1l0,0l0,0c-0.7-0.7-1-1.5-1-2.5l0,0l0,0c0-1,0.3-1.8,1-2.5l0,0l0,0c0.7-0.7,1.5-1,2.5-1l0,0l0,0
		c1,0,1.8,0.3,2.5,1l0,0l0,0c0.7,0.7,1,1.5,1,2.5l0,0l0,0c0,1-0.3,1.8-1,2.5l0,0l0,0C29-44.2,28.2-43.9,27.2-43.9L27.2-43.9z
		 M27.2-45.6L27.2-45.6L27.2-45.6c0.5,0,0.9-0.2,1.3-0.5l0,0l0,0c0.3-0.3,0.5-0.8,0.5-1.3l0,0l0,0c0-0.5-0.2-1-0.5-1.3l0,0l0,0
		c-0.3-0.4-0.7-0.5-1.3-0.5l0,0l0,0c-0.5,0-0.9,0.2-1.3,0.5l0,0l0,0c-0.3,0.3-0.5,0.8-0.5,1.3l0,0l0,0c0,0.5,0.2,1,0.5,1.3l0,0l0,0
		C26.3-45.7,26.7-45.6,27.2-45.6z M33.9-48.3L33.9-48.3v4.4H32v-6.6l1.9-0.2v0.6l0,0c0.4-0.4,1-0.6,1.6-0.6l0,0l0,0
		c0.9,0,1.5,0.3,2,0.8l0,0l0,0c0.5-0.5,1.3-0.8,2.2-0.8l0,0l0,0c0.9,0,1.5,0.3,2,0.8l0,0l0,0c0.5,0.5,0.7,1.1,0.7,1.8l0,0v4.2h-1.9
		v-3.8l0,0c0-0.5-0.1-0.8-0.3-1.1l0,0l0,0c-0.2-0.2-0.5-0.4-1-0.4l0,0l0,0c-0.4,0-0.7,0.3-1,0.8l0,0l0,0c0,0.1,0,0.3,0,0.4l0,0v4
		h-1.9v-3.8l0,0c0-0.5-0.1-0.8-0.3-1.1l0,0l0,0c-0.2-0.2-0.5-0.4-1-0.4l0,0l0,0C34.5-49.2,34.2-48.9,33.9-48.3z M45-48.8L44.2-50
		l0,0c0.9-0.5,1.9-0.8,3-0.8l0,0l0,0c0.8,0,1.5,0.2,1.9,0.7l0,0l0,0c0.5,0.5,0.7,1.1,0.7,2.1l0,0v4.1H48v-0.5l0,0
		c-0.6,0.4-1.1,0.5-1.5,0.5l0,0l0,0c-0.9,0-1.6-0.2-2-0.6l0,0l0,0c-0.5-0.4-0.7-0.9-0.7-1.6l0,0l0,0c0-0.6,0.2-1.2,0.7-1.7l0,0l0,0
		c0.4-0.5,1.1-0.8,2.1-0.8l0,0l0,0c0.4,0,1,0.1,1.5,0.4l0,0v-0.2l0,0c0-0.5-0.4-0.8-1.1-0.8l0,0l0,0C46.1-49.2,45.4-49.1,45-48.8
		L45-48.8z M48-46L48-46v-0.8l0,0c-0.2-0.4-0.6-0.5-1.3-0.5l0,0l0,0c-0.8,0.1-1.3,0.4-1.3,1l0,0l0,0c0,0.5,0.5,0.8,1.3,0.9l0,0l0,0
		C47.4-45.5,47.8-45.7,48-46z M53.5-48.3L53.5-48.3v4.3h-1.9v-6.6l1.9-0.2v0.6l0,0c0.5-0.4,1-0.6,1.6-0.6l0,0l0,0
		c0.9,0,1.5,0.3,2,0.8l0,0l0,0c0.5,0.5,0.7,1.1,0.7,1.8l0,0v4.2h-1.9v-3.8l0,0c0-0.5-0.1-0.8-0.3-1.1l0,0l0,0
		c-0.2-0.2-0.6-0.4-1-0.4l0,0l0,0C54.2-49.2,53.8-48.9,53.5-48.3z M61.4-44h-1.9v-6.8h1.9V-44z M59.4-52.4L59.4-52.4L59.4-52.4
		c0,0.3,0.1,0.5,0.3,0.7l0,0l0,0c0.2,0.2,0.4,0.3,0.8,0.3l0,0l0,0c0.3,0,0.6-0.1,0.8-0.3l0,0l0,0c0.2-0.2,0.3-0.4,0.3-0.7l0,0l0,0
		c0-0.3-0.1-0.5-0.3-0.7l0,0l0,0c-0.2-0.2-0.4-0.3-0.8-0.3l0,0l0,0c-0.3,0-0.6,0.1-0.7,0.3l0,0l0,0C59.5-53,59.4-52.7,59.4-52.4z
		 M63.9-48.8L63.2-50l0,0c0.9-0.5,1.9-0.8,3-0.8l0,0l0,0c0.8,0,1.5,0.2,1.9,0.7l0,0l0,0c0.5,0.5,0.7,1.1,0.7,2.1l0,0v4.1h-1.9v-0.5
		l0,0c-0.6,0.4-1.1,0.5-1.5,0.5l0,0l0,0c-0.9,0-1.6-0.2-2.1-0.6l0,0l0,0c-0.5-0.4-0.7-0.9-0.7-1.6l0,0l0,0c0-0.6,0.2-1.2,0.7-1.7
		l0,0l0,0c0.4-0.5,1.1-0.8,2.1-0.8l0,0l0,0c0.4,0,0.9,0.1,1.5,0.4l0,0v-0.2l0,0c0-0.5-0.4-0.8-1.1-0.8l0,0l0,0
		C65-49.2,64.4-49.1,63.9-48.8L63.9-48.8z M66.9-46L66.9-46v-0.8l0,0c-0.2-0.4-0.6-0.5-1.3-0.5l0,0l0,0c-0.8,0.1-1.3,0.4-1.3,1l0,0
		l0,0c0,0.5,0.5,0.8,1.3,0.9l0,0l0,0C66.3-45.5,66.7-45.7,66.9-46z"/>
</g>
<g id="_x39_269873b-566f-aa23-fe77-697bbc54db67" transform="matrix(0.17276311525438642,0,0,0.17276311525438642,35.75002377601375,124.08554457454373)">
	<g>
		<path class="st1" d="M-55.6-446c33.6,0,65.1-12.9,88.8-36.6c23.7-23.7,36.6-55.2,36.6-88.8s-12.9-65.1-36.6-88.8
			C9.5-683.9-22-696.8-55.6-696.8s-65.1,12.9-88.8,36.6c-23.7,23.7-36.6,55.2-36.6,88.8c0,33.6,12.9,65.1,36.6,88.8
			C-120.7-458.9-89.2-446-55.6-446z M-48.4-467.3c-2.4,0.3-4.8,0.3-7.2,0.3c-3.3,0-6.6-0.3-9.9-0.6c-10.8-16.8-18.9-34.8-23.7-53.7
			h53.1c1.8,4.5,5.1,8.7,9,11.4C-32.2-494.9-39.4-480.8-48.4-467.3z M-19.9-473.3c5.7-10.5,10.2-21,13.8-32.1
			c8.7-1.8,15.6-7.8,18.9-15.9h23.1C23.9-499.4,3.8-482.3-19.9-473.3z M48.5-571.4c0,9.9-1.5,19.5-3.9,28.8H12.2
			c-1.8-3.9-4.8-7.5-8.4-10.2c0.6-6.6,0.9-13.2,0.9-19.8c0-9.3-0.6-18.6-1.8-27.6h41.4C47.3-591.2,48.5-581.3,48.5-571.4z
			 M35.9-621.5H-0.7c-3.9-16.5-9.6-32.1-17.4-47.1C4.7-659.9,23.9-642.8,35.9-621.5z M-16.3-572.6c0,5.1-0.3,10.2-0.6,15.3
			c-8.4,1.8-15.3,7.2-18.6,14.7h-57.9c-1.2-9-2.1-18.3-2.1-27.3c0-5.7,0.3-11.4,0.9-17.1c7.8-1.5,14.1-6.6,18-13.2h58.5
			C-16.9-591.2-16.3-581.9-16.3-572.6z M-63.4-675.2c2.7-0.3,5.4-0.3,7.8-0.3c3,0,6,0,9,0.3c10.8,16.8,18.9,34.8,23.7,53.7h-52.2
			c-1.8-5.1-5.1-9.6-9.3-12.9C-79-648.8-72.1-662.3-63.4-675.2z M-91.9-669.2c-5.1,9.6-9.6,19.8-13.2,30
			c-9.3,1.8-16.8,8.7-19.8,17.4h-21.9C-135.1-643.1-115.6-660.2-91.9-669.2z M-159.7-571.4c0-9.9,1.5-19.8,4.2-28.8h32.7
			c1.8,3.3,4.5,6.3,7.5,8.7c-0.6,7.2-1.2,14.4-1.2,21.6c0,9.3,0.6,18.3,1.8,27.3h-40.8C-158.5-551.9-159.7-561.5-159.7-571.4z
			 M-111.1-521.6c3.9,16.2,9.6,32.1,17.4,47.1c-22.8-9-41.7-25.8-53.4-47.1H-111.1z"/>
	</g>
</g>
</svg>
